<?xml version="1.0" standalone="no"?>
<!DOCTYPE svg PUBLIC "-//W3C//DTD SVG 1.1//EN" "http://www.w3.org/Graphics/SVG/1.1/DTD/svg11.dtd" >
<!--
2013-9-30: Created.
-->
<svg>
<metadata>
Created by iconfont
</metadata>
<defs>

<font id="iconfont" horiz-adv-x="1024" >
  <font-face
    font-family="iconfont"
    font-weight="500"
    font-stretch="normal"
    units-per-em="1024"
    ascent="896"
    descent="-128"
  />
    <missing-glyph />
    
    <glyph glyph-name="yonghu" unicode="&#58896;" d="M656.784026 630.925501C619.192072 736.401558 523.003632 811.682622 410.695885 811.682622 265.79224 811.682622 149.511537 686.361306 149.511537 534.45668 149.511537 439.516288 194.234884 355.968745 262.214372 306.599741 108.366058 242.040275 1.030024 84.439226 1.030024-99.745133L74.376314-99.745133C74.376314 82.540418 204.968489 234.445044 371.33934 255.33193 373.128274 255.33193 417.851622 259.129546 455.419233 255.33193L458.997102 255.33193C480.846671 252.018852 502.019492 246.482421 522.303623 238.942999 505.916786 270.567129 495.171659 306.040103 491.534829 343.805257 466.90534 332.093274 439.551105 325.587819 410.695885 325.587819 301.570918 325.587819 213.913157 418.629403 213.913157 534.456681 213.913157 650.283957 301.570918 743.325542 410.695885 743.325542 499.203398 743.325542 573.589193 682.120231 598.537875 597.194027 616.378196 610.911517 635.922924 622.301034 656.784026 630.925501ZM855.754211 192.514454C923.7337 241.883458 968.457048 325.431002 968.457048 420.371393 968.457048 574.174827 850.387411 699.496143 705.483764 699.496143 560.580119 699.496143 444.299416 574.174827 444.299416 422.270201 444.299416 327.329809 489.022762 243.782265 557.002251 194.413262 403.153937 129.853796 295.817903-27.747253 295.817903-211.931612L295.817903-211.931612 369.164193-211.931612 369.164193-211.931612C369.164193-29.646061 499.756367 122.258565 666.127219 143.145451 667.916153 143.145451 712.639501 146.943066 750.207112 143.145451L753.784981 143.145451 753.784981 143.145451C916.577965 118.460949 1041.803338-29.646061 1041.803338-210.032804L1041.803338-210.032804 1116.938561-210.032804 1116.938561-210.032804C1115.149626-27.747253 1007.813593 129.853796 855.754211 192.514454L855.754211 192.514454ZM705.483764 213.40134C596.358797 213.40134 508.701036 306.442923 508.701036 422.270202 508.701036 538.097478 596.358797 631.139062 705.483764 631.139062 814.608732 631.139062 902.266493 538.09748 902.266493 422.270202 902.266493 306.442923 814.608732 213.40134 705.483764 213.40134L705.483764 213.40134Z"  horiz-adv-x="1118" />

    
    <glyph glyph-name="houtui" unicode="&#58931;" d="M745.662761 101.80285 464.464357 382.953158l281.198403 283.597033-80.733743 80.038918L303.852356 382.434342l40.204677-39.86187 321.222979-321.160557L745.662761 101.80285zM745.662761 101.80285"  horiz-adv-x="1024" />

    
    <glyph glyph-name="ccb" unicode="&#58899;" d="M495.616 823.808C521.216 836.096 550.4 838.656 578.048 843.776 637.952 849.408 706.048 836.096 747.52 789.504 814.592 724.48 880.64 658.944 947.2 594.432 921.088 569.344 896.512 542.72 869.888 517.632L866.816 518.656C777.728 607.232 690.176 696.832 601.088 785.408 573.44 812.544 533.504 822.272 495.616 823.808ZM162.304 610.816C241.664 720.896 376.32 788.992 512.512 785.92 536.576 784.384 558.592 771.072 576.512 755.2 666.112 665.6 755.2 576 844.8 486.4 805.376 445.952 764.928 407.04 726.016 366.08 653.824 438.784 580.608 510.464 509.952 584.704 507.904 583.168 504.832 581.12 502.784 580.096 428.032 505.856 354.304 430.08 279.04 356.352 353.792 278.016 432.128 202.752 507.904 125.44 579.072 196.608 649.728 267.776 720.384 339.456 728.064 349.696 741.888 345.088 753.152 346.112 814.08 346.112 875.008 345.6 935.936 346.112 936.448 237.056 889.856 129.024 814.08 51.2 745.472-20.48 651.264-65.536 552.96-76.8 524.288-77.312 495.104-76.8 465.92-76.8 354.816-65.024 248.32-9.728 177.664 77.312 112.128 155.136 77.824 257.024 77.312 358.4 79.872 448.512 108.032 538.624 162.304 610.816Z"  horiz-adv-x="1024" />

    
    <glyph glyph-name="yingyong" unicode="&#58893;" d="M1008.302197 589.443265 789.691542 370.83261C769.561962 350.70303 736.950904 350.70303 716.821324 370.83261L498.2391 589.443265C478.10952 609.544414 478.10952 642.183903 498.2391 662.285052L716.821324 880.895707C736.950904 901.025287 769.561962 901.025287 789.691542 880.895707L1008.302197 662.285052C1028.431777 642.183903 1028.431777 609.544414 1008.302197 589.443265ZM753.668691 841.176747 537.958061 625.466116 753.668691 409.755485 969.379322 625.466116 753.668691 841.176747ZM369.841946-127.971568 57.094228-127.971568C25.677298-127.971568 0.231007-102.525277 0.231007-71.108347L0.231007 241.639371C0.231007 273.027869 25.677298 298.502593 57.094228 298.502593L369.841946 298.502593C401.230445 298.502593 426.705168 273.027869 426.705168 241.639371L426.705168-71.108347C426.705168-102.525277 401.230445-127.971568 369.841946-127.971568ZM369.841946 241.639371 57.094228 241.639371 57.094228-71.108347 369.841946-71.108347 369.841946 241.639371ZM369.841946 383.797425 57.094228 383.797425C25.677298 383.797425 0.231007 409.243716 0.231007 440.660646L0.231007 753.408364C0.231007 784.796863 25.677298 810.271586 57.094228 810.271586L369.841946 810.271586C401.230445 810.271586 426.705168 784.796863 426.705168 753.408364L426.705168 440.660646C426.705168 409.243716 401.230445 383.797425 369.841946 383.797425ZM369.841946 753.408364 57.094228 753.408364 57.094228 440.660646 369.841946 440.660646 369.841946 753.408364ZM568.863221 298.502593 881.61094 298.502593C912.999438 298.502593 938.474161 273.027869 938.474161 241.639371L938.474161-71.108347C938.474161-102.525277 912.999438-127.971568 881.61094-127.971568L568.863221-127.971568C537.446292-127.971568 512-102.525277 512-71.108347L512 241.639371C512 273.027869 537.446292 298.502593 568.863221 298.502593ZM568.863221-71.108347 881.61094-71.108347 881.61094 241.639371 568.863221 241.639371 568.863221-71.108347Z"  horiz-adv-x="1024" />

    
    <glyph glyph-name="licai" unicode="&#58886;" d="M734.967742 405.470968c0 13.212903-11.56129 24.774194-24.774194 24.774193h-153.6l122.219355 186.632258c8.258065 11.56129 4.954839 26.425806-6.606451 34.683871s-26.425806 4.954839-34.683871-6.606451L512 453.367742l-123.870968 189.935484c-8.258065 11.56129-23.122581 14.864516-34.683871 6.606451-11.56129-6.606452-14.864516-23.122581-6.606451-34.683871l118.916129-184.980645H313.806452c-13.212903 0-24.774194-11.56129-24.774194-24.774193s11.56129-24.774194 24.774194-24.774194h171.767742v-84.232258H313.806452c-13.212903 0-24.774194-11.56129-24.774194-24.774193s11.56129-24.774194 24.774194-24.774194h173.419354v-142.03871c0-13.212903 11.56129-24.774194 24.774194-24.774193 14.864516 0 26.425806 9.909677 24.774194 24.774193v142.03871H710.193548c13.212903 0 24.774194 11.56129 24.774194 24.774194s-11.56129 24.774194-24.774194 24.774193H535.122581v84.232258H710.193548c13.212903 0 24.774194 11.56129 24.774194 24.774194z m218.012903 204.8c-6.606452 13.212903-23.122581 18.167742-34.683871 11.56129-13.212903-6.606452-18.167742-23.122581-11.56129-34.683871 89.187097-173.419355 56.154839-381.522581-80.929032-518.606452-173.419355-173.419355-455.845161-173.419355-629.264517 0S23.122581 524.387097 196.541935 697.806452 652.387097 871.225806 825.806452 697.806452c9.909677-9.909677 26.425806-9.909677 36.335483 0 9.909677 9.909677 9.909677 26.425806 0 36.335483-193.23871 193.23871-507.045161 193.23871-700.28387 0s-193.23871-507.045161 0-700.28387C257.651613-63.587097 384.825806-111.483871 512-111.483871c127.174194 0 252.696774 47.896774 350.141935 145.341936 153.6 151.948387 189.935484 384.825806 90.83871 576.412903z"  horiz-adv-x="1024" />

    
    <glyph glyph-name="zhanghu" unicode="&#59002;" d="M57.065808-70.735159h901.338368v122.036098c-172.704393 60.733715-308.957183 156.667962-332.443161 173.727994a63.349586 63.349586 0 0 0-33.721997 31.788527c-17.7993 36.906536-1.080469 85.925696 2.445271 95.36558a30.480591 30.480591 0 0 0 5.459211 8.98495c34.176931 38.100739 79.67035 116.747487 80.125284 117.543622 10.008552 12.681291 18.254234 25.305714 16.889432 37.247737-1.194202 10.463486-9.383018 17.685567-9.496751 17.7993a28.319653 28.319653 0 0 0-11.202754 22.57611V737.3417c-39.181207 98.834453-156.838563 101.734659-170.315989 101.734659L498.693175 839.133226c-128.518909 0-162.070306-84.162826-167.47265-100.82479l-2.615871-172.192592a28.319653 28.319653 0 0 0-9.041817-20.358305c-10.292886-9.610485-15.752096-18.538568-15.240296-25.248848 0.511801-7.677014 8.81435-15.069695 11.714556-17.060032a30.082523 30.082523 0 0 0 10.74782-13.591159c26.61365-70.287333 73.415005-129.371911 73.869939-129.940579 23.713445-35.598601 22.462376-64.430055 17.514967-82.684289-11.202754-41.114678-49.985894-65.453657-64.771256-73.415006-53.397901-49.303493-233.779308-116.974954-296.332759-139.437329V-70.735159z m929.771755-56.866774H28.632421a28.433387 28.433387 0 0 0-28.433387 28.433387v183.622814c0 12.055756 7.620148 22.860443 19.050369 26.78425 96.502916 33.721997 262.497029 100.369856 297.072028 135.854724l0.056866-0.056867a27.637252 27.637252 0 0 0 7.961349 5.743544c11.259621 5.516077 33.892597 20.870106 38.95374 39.408674 2.786472 10.236019 0 21.438774-8.530016 34.233798a597.840395 597.840395 0 0 0-78.248681 135.854723c-10.292886 8.98495-26.61365 27.125451-28.831455 53.227301-1.364803 15.410896 2.104071 38.157605 24.225246 62.837785l2.502138 164.686178c0 2.104071 0.284334 4.208141 0.796135 6.312212C287.660576 800.065752 350.384628 896 498.693175 896l7.449547-0.056867c17.742433 0 174.922197-3.980674 225.476759-143.702338a28.433387 28.433387 0 0 0 1.706004-9.667351v-174.52413c8.131949-9.496751 18.026767-24.907647 20.358305-45.720886 2.843339-25.590048-6.198478-51.180097-27.011718-76.030877l0.056867 0.056867c0.454934 0-43.048148-75.348476-80.295885-118.680958-4.435608-14.330427-7.904482-36.053535-2.957072-46.289554 0.966735-1.93347 1.990337-3.070806 4.947409-4.037541 2.900205-0.966735 5.686677-2.388405 8.131949-4.208141 1.535403-1.194202 152.914755-112.937413 339.210307-174.467263a28.433387 28.433387 0 0 0 19.505303-27.011717V-99.168546a28.433387 28.433387 0 0 0-28.433387-28.433387z"  horiz-adv-x="1024" />

    
    <glyph glyph-name="omit" unicode="&#58948;" d="M292.768415 446.306045c2.490727-0.514723 4.989641-0.98749 7.468089-1.551332 28.956495-6.587022 48.828079-32.893154 47.590901-62.97938-1.187035-28.850072-23.508413-53.386908-52.383044-57.604976-0.904603-0.132006-1.784646-0.432859-2.675946-0.654916-4.186346 0-8.372691 0-12.558014 0-0.773619 0.208754-1.535983 0.497327-2.322905 0.615007-26.221198 3.89061-46.433542 23.107277-51.662637 49.134047-0.360204 1.792832-0.753153 3.578502-1.130753 5.368264 0 4.186346 0 8.372691 0 12.558014 0.234337 0.992607 0.537236 1.972934 0.694825 2.976798 3.901867 24.797779 21.982664 44.51075 46.302559 50.418296 2.687202 0.652869 5.412266 1.151219 8.119935 1.722224C284.395724 446.306045 288.582069 446.306045 292.768415 446.306045zM505.228271 323.514417c-2.490727 0.514723-4.990664 0.98749-7.469112 1.550309-28.956495 6.588045-48.828079 32.894178-47.590901 62.980403 1.187035 28.850072 23.50739 53.386908 52.384068 57.603953 0.904603 0.132006 1.784646 0.432859 2.675946 0.655939 4.186346 0 8.371668 0 12.55699 0 2.490727-0.514723 4.990664-0.98749 7.469112-1.551332 28.956495-6.587022 48.829102-32.893154 47.590901-62.97938-1.186012-28.850072-23.50739-53.386908-52.383044-57.604976-0.904603-0.132006-1.784646-0.432859-2.675946-0.654916C513.598916 323.514417 509.413594 323.514417 505.228271 323.514417zM729.919706 323.514417c-2.490727 0.514723-4.990664 0.98749-7.469112 1.550309-28.957519 6.588045-48.829102 32.894178-47.590901 62.980403 1.186012 28.850072 23.50739 53.386908 52.383044 57.603953 0.904603 0.132006 1.784646 0.432859 2.675946 0.655939 4.186346 0 8.371668 0 12.55699 0 0.774643-0.208754 1.535983-0.49835 2.323928-0.615007 26.221198-3.89061 46.433542-23.108301 51.661613-49.134047 0.361227-1.792832 0.753153-3.579525 1.130753-5.368264 0-4.185322 0-8.371668 0-12.558014-0.234337-0.991584-0.536212-1.972934-0.694825-2.976798-3.901867-24.797779-21.982664-44.51075-46.302559-50.418296-2.687202-0.653893-5.411243-1.151219-8.119935-1.722224C738.291374 323.514417 734.106052 323.514417 729.919706 323.514417z"  horiz-adv-x="1024" />

    
    <glyph glyph-name="houtui1" unicode="&#58911;" d="M378.180357 383.903426l356.628157 381.876169C820.020552 858.566036 739.858117 950.090077 652.752478 857.303636L289.812318 471.009065A126.240056 126.240056 0 0 1 251.940301 383.903426a120.559253 120.559253 0 0 1 37.872017-87.105638l362.94016-386.294571c87.105639-92.786441 169.161675 0 82.056036 91.52404z"  horiz-adv-x="1024" />

    
    <glyph glyph-name="ccb1" unicode="&#58955;" d="M905.2 355.9H744s-11.6 0-16.4-2c-2.9-1-12.5-8.9-12.5-8.9L516.3 142.5c-3.9-3-8.7-3-12.5 0L292.4 357.9c-2.9 3-2.9 8.9 0 11.8L504.7 585c2.9 3.9 8.7 3.9 11.6 0l186.2-189.8s7.7-8.9 16.4-11.8c8.7-2 21.2 8.9 21.2 8.9l85.9 89.5-250.8 253.7c-53.1 54.1-111 49.2-134.1 46.2C239.4 747.3 93.6 571.3 93.6 361.8c0-236 192-424.8 416.9-424.8 221 0 406.3 180.9 416.9 409.1 0 3 1 4.9-4.8 8.9-5.8 3.9-17.4 0.9-17.4 0.9zM641.8 742.4l220-222.2 60.8 60s5.8 9.8 7.7 18.7c1 4.9-8.7 12.8-8.7 12.8L787.5 749.2C661.1 878.1 520.2 816.1 520.2 816.1s58.8-1 121.6-73.7z"  horiz-adv-x="1024" />

    
    <glyph glyph-name="CCB" unicode="&#58895;" d="M894.349479 527.173837S582.286086 942.049475 464.184982 859.077192c0 0 238.378203 173.68144 531.369633-232.333771l-101.205136-99.569584zM652.543727 729.868554l219.036018-237.965759-123.789981-122.566873-230.96844 235.562208-235.661764-249.983513 228.550667-247.565741 240.483088 249.983514s142.847722 4.778657 195.213842 0c36.593707-3.356438 46.435465-17.265744 49.066572-25.358173C979.739535 75.405827 772.579049-128 519.025764-128 255.943609-128 42.667579 91.021796 42.667579 361.200827c0 244.920413 175.30277 447.800018 404.109437 483.554615 124.472647 2.716439 205.766711-114.886888 205.766711-114.886888z"  horiz-adv-x="1024" />

    
    <glyph glyph-name="xiaoxi" unicode="&#58625;" d="M841.074 720.424c13.536 0 30.991-18.864 31.07-38.94l-2.63-413.476-0.001-0.356c0-9.859-3.379-18.928-9.514-25.535-3.586-3.862-9.628-8.465-18.054-8.465h-0.139l-262.49-0.652a56.01 56.01 0 0 1-29.164-8.278L351.267 102.59900000000005l10.219 66.248a56 56 0 0 1-55.315 64.538l-129.379 0.069c-2.165 0-8.752 0-14.952 7.124-5.607 6.442-8.822 16.238-8.822 26.876v0.157l-1.161 413.594c0.026 21.128 15.169 39.22 27.568 39.22h661.649m0 55.999h-661.65c-46.153 0-83.568-45.569-83.568-95.274l1.162-413.697c0-49.706 33.621-90 79.774-90l129.349-0.069-28.662-185.808L579.455 177l262.489 0.652c46.153 0 83.568 40.294 83.568 90l2.632 413.697c0 49.705-40.916 95.075-87.07 95.075zM285.709 481m-60 0a60 60 0 1 1 120 0 60 60 0 1 1-120 0ZM512 481m-60 0a60 60 0 1 1 120 0 60 60 0 1 1-120 0ZM738.291 481m-60 0a60 60 0 1 1 120 0 60 60 0 1 1-120 0Z"  horiz-adv-x="1024" />

    
    <glyph glyph-name="gouxuan" unicode="&#59033;" d="M768-128H0L1024 896v-768a256 256 0 0 0-256-256z m-99.328 153.6c131.84 169.472 274.432 329.984 274.432 329.984L928.768 384c-172.544-168.704-266.24-269.824-266.24-269.824l-144.64 104.704-27.392-30.72z"  horiz-adv-x="1024" />

    
    <glyph glyph-name="gouxuan1" unicode="&#59186;" d="M0-95.892645L1231.013161 896v-991.892645H0z m677.062194 321.172645l152.675096-156.672c133.879742 141.179871 276.711226 273.738323 276.711226 273.738323l-11.032774 26.491871c-171.371355-137.843613-264.984774-220.985806-264.984774-220.985807l-125.985033 102.730323-27.383741-25.30271z"  horiz-adv-x="1255" />

    
    <glyph glyph-name="hao" unicode="&#58990;" d="M984.191664 434.391562h-428.184484v415.402859c0 19.17244-19.17244 44.735692-44.735693 44.735692-25.563253 0-44.735692-25.563253-44.735692-51.126506v-415.402858H51.132936c-25.563253 6.390813-51.126506-19.17244-51.126505-44.735693s25.563253-44.735692 44.735692-44.735692h415.402859v-415.402858c6.390813-25.563253 25.563253-51.126506 51.126505-51.126506s44.735692 25.563253 44.735693 44.735692v421.793672h421.793671c25.563253 0 44.735692 25.563253 44.735693 44.735692s-12.781626 51.126506-38.34488 51.126506z"  horiz-adv-x="1027" />

    
    <glyph glyph-name="dingdan" unicode="&#58965;" d="M534.9 612.1c28.6 0.4 55.8 12.2 75.7 32.7 19.9 20.5 30.8 48.1 30.4 76.7 0.2 32.5-14 63.4-38.6 84.5 2.2-7 3.4-14.3 3.5-21.7 1.5-26.9-12-52.4-35-66.3a72.659 72.659 0 0 0-75 0c-23.1 13.9-36.5 39.4-35 66.3 0 5.9 0.7 11.7 2.1 17.5-21.9-20.9-34.3-50-34.2-80.3-0.4-28.6 10.5-56.2 30.4-76.7s47.1-32.3 75.7-32.7z m-3.2 139.7c39.3 1.1 70.4 33.6 69.8 72.9 0 25.3-13.5 48.6-35.4 61.3-21.9 12.6-48.9 12.6-70.8 0s-35.4-36-35.4-61.3c-0.5-39.3 30.6-71.7 69.8-72.9h2zM31.9 97.9l170.9-68.2C189.1 58.1 133 487.4 133 487.4L31.9 97.9z m694.8-224.6l10.9 167.6-383.2-39.8 372.3-127.8zM843.1 796.9l-186.2-28.2c11.6-21.4 17.7-45.4 17.7-69.8 0-49.9-26.6-96-69.8-121-43.2-25-96.5-25-139.7 0-43.2 25-69.8 71.1-69.8 121 0 10.3 1.1 20.6 3.3 30.7l-228.8-35.1c8.4-221.6 107.5-662.3 107.5-662.3l714.2 125c-49.6 51.2-149 639.5-149 639.5l0.6 0.2zM305.2 447.8L609 492.7l9.1-33.8L313.9 413l-8.7 34.8z m65.1-256.1l-10.9 38.6 373.4 53.5 11.6-38.2-374.1-53.9z m-23.2 111l-14.7 36.1 481.9 66.3 14.7-38.2-481.9-64.2z m0 0"  horiz-adv-x="1024" />

    
    <glyph glyph-name="gouxuan2" unicode="&#58950;" d="M1.205-128H1023.98V894.774L1.205-128z m894.277 345.687L678.293 0.496c-9.938-9.938-22.972-14.982-36.056-14.932-13.034 0-26.119 4.994-36.157 15.03l-108.47 108.47c-19.977 19.977-20.126 52.239 0 72.316 19.976 19.974 52.186 20.125 72.312 0.05l72.314-72.366L823.168 290c19.927 19.927 52.088 19.976 72.215-0.098 19.976-19.977 19.775-52.539 0.099-72.214z"  horiz-adv-x="1024" />

    
    <glyph glyph-name="CCB1" unicode="&#58894;" d="M495.616 823.808c25.6 12.288 54.784 14.848 82.432 19.968 59.904 5.632 128-7.68 169.472-54.272 67.072-65.024 133.12-130.56 199.68-195.072-26.112-25.088-50.688-51.712-77.312-76.8l-3.072 1.024c-89.088 88.576-176.64 178.176-265.728 266.752-27.648 27.136-67.584 36.864-105.472 38.4zM162.304 610.816c79.36 110.08 214.016 178.176 350.208 175.104 24.064-1.536 46.08-14.848 64-30.72C666.112 665.6 755.2 576 844.8 486.4c-39.424-40.448-79.872-79.36-118.784-120.32-72.192 72.704-145.408 144.384-216.064 218.624-2.048-1.536-5.12-3.584-7.168-4.608-74.752-74.24-148.48-150.016-223.744-223.744 74.752-78.336 153.088-153.6 228.864-230.912a41870.059 41870.059 0 0 1 212.48 214.016c7.68 10.24 21.504 5.632 32.768 6.656 60.928 0 121.856-0.512 182.784 0 0.512-109.056-46.08-217.088-121.856-294.912-68.608-71.68-162.816-116.736-261.12-128-28.672-0.512-57.856 0-87.04 0-111.104 11.776-217.6 67.072-288.256 154.112-65.536 77.824-99.84 179.712-100.352 281.088 2.56 90.112 30.72 180.224 84.992 252.416z"  horiz-adv-x="1024" />

    
    <glyph glyph-name="yonghu1" unicode="&#58885;" d="M295.901 369.91c-40.64 33.009-66.64 83.58-66.64 140.27 0 99.455 80.024 180.08 178.739 180.08s178.738-80.625 178.738-180.08c0-56.69-25.999-107.261-66.64-140.27C627.995 325.396 704 218.549 704 93.816c0-12.032-0.707-23.898-2.082-35.557h-64.336a237.55 237.55 0 0 1 2.664 35.557c0 129.229-103.98 233.99-232.246 233.99-128.266 0-232.246-104.761-232.246-233.99 0-12.088 0.91-23.962 2.664-35.557h-64.336A303.534 303.534 0 0 0 112 93.816c0 124.733 76.006 231.58 183.901 276.094zM408 394.332c63.504 0 114.985 51.866 114.985 115.847 0 63.981-51.48 115.848-114.985 115.848-63.504 0-114.985-51.867-114.985-115.848 0-63.98 51.48-115.847 114.985-115.847zM615.759 709c98.652 0 178.626-80.64 178.626-180.116 0-56.7-25.983-107.281-66.598-140.297 107.827-44.523 183.785-151.392 183.785-276.149 0-12.034-0.706-23.902-2.08-35.564h-64.296a237.79 237.79 0 0 1 2.663 35.564c0 129.255-103.915 234.036-232.1 234.036h0.76c-18.375 0-33.27 14.895-33.27 33.27 0 18.374 14.895 33.27 33.27 33.27h-0.76c63.464 0 114.912 51.877 114.912 115.87 0 63.994-51.448 115.87-114.912 115.87-4.44 0-9.626-0.533-15.557-1.602-15.46-2.785-30.252 7.491-33.037 22.953a28.445 28.445 0 0 0-0.301 2.133c-1.997 19.42 11.83 36.901 31.189 39.43 6.803 0.888 12.705 1.332 17.706 1.332z"  horiz-adv-x="1024" />

    
    <glyph glyph-name="houtui2" unicode="&#58972;" d="M192.612571 328.137143l355.017143-355.017143a57.142857 57.142857 0 0 0-80.822857-80.822857l-446.171428 446.171428a66.285714 66.285714 0 0 0 0 93.714286l446.171428 446.08a57.142857 57.142857 0 0 0 80.822857-80.822857l-355.017143-355.017143h1142.034286a57.142857 57.142857 0 0 0 0-114.285714H192.612571z"  horiz-adv-x="1398" />

    
    <glyph glyph-name="juxingcopy" unicode="&#59014;" d="M761.52967-128c-7.501832 0-22.505495 0-30.007326 7.501832L228.899634 382.124542 731.522344 884.747253c15.003663 15.003663 37.509158 15.003663 52.512821 0s15.003663-37.509158 0-52.512821l-450.10989-450.10989 450.10989-450.10989c15.003663-15.003663 15.003663-37.509158 0-52.51282 0 0-15.003663-7.501832-22.505495-7.501832z"  horiz-adv-x="1024" />

    
    <glyph glyph-name="shenglve" unicode="&#58900;" d="M234.777 442.37h115.116v-115.116H234.777zM454.537 442.37h115.116v-115.116H454.537zM674.297 442.37h115.117v-115.116H674.297z"  horiz-adv-x="1024" />

    
    <glyph glyph-name="houtui3" unicode="&#58910;" d="M373.248 384l338.944-339.968c12.288-12.288 12.288-32.768 0-45.056-12.288-12.288-32.768-12.288-45.056 0l-358.4 358.4c-14.336 14.848-14.336 38.4 0 52.736l358.4 358.4c12.288 11.776 31.744 11.776 44.032 0 12.8-11.776 13.824-32.256 1.536-45.056L373.248 384z"  horiz-adv-x="1024" />

    
    <glyph glyph-name="licai1" unicode="&#58887;" d="M649.552 387.82H385.91c-11.462 0-19.104 7.643-19.104 19.105s7.642 19.105 19.104 19.105h263.642c11.463 0 19.105-7.642 19.105-19.105s-9.553-19.104-19.105-19.104z m0-93.611H385.91c-11.462 0-19.104 7.642-19.104 19.104s7.642 19.105 19.104 19.105h263.642c11.463 0 19.105-7.642 19.105-19.105s-9.553-19.104-19.105-19.104zM517.731 173.85c-11.462 0-19.104 7.643-19.104 19.105v212.06c0 11.463 7.642 19.104 19.104 19.104s19.105-7.641 19.105-19.104v-213.97c0-9.552-9.552-17.194-19.105-17.194zM519.642 389.731c-5.732 0-11.463 1.91-15.284 7.642L401.194 534.925c-5.731 7.642-3.82 21.015 3.82 26.747 7.643 5.731 21.016 3.82 26.747-3.821l103.164-135.642c5.732-7.642 3.821-21.015-3.82-26.746-3.821-3.821-7.642-5.732-11.463-5.732zM513.91 389.731c-3.82 0-7.641 1.91-11.462 3.821-7.642 5.732-9.552 19.105-3.821 26.747L601.79 555.94c5.731 7.642 19.105 9.553 26.746 3.821 7.642-5.731 9.553-19.104 3.821-26.746L529.194 397.373c-3.82-3.82-9.552-7.642-15.284-7.642zM517.731-89.791c-252.179 0-458.507 206.328-458.507 458.507S265.552 827.224 517.73 827.224c112.717 0 219.702-40.12 303.762-114.627 19.104-17.194 36.298-36.298 53.492-55.403 13.373-17.194 11.463-40.12-5.731-53.493-17.194-13.373-40.12-11.462-53.493 5.732-13.373 17.194-28.657 32.477-43.94 45.85-70.687 61.135-160.478 95.523-254.09 95.523-210.149 0-382.09-171.94-382.09-382.09s171.941-382.09 382.09-382.09 382.09 171.941 382.09 382.09c0 32.478-3.821 64.956-11.463 95.523-5.731 21.015 7.642 42.03 26.746 45.85 21.015 5.732 42.03-7.641 45.851-26.746 9.552-38.209 15.284-76.418 15.284-116.537 0-250.269-206.329-456.597-458.508-456.597zM852.06 609.433c-13.373 0-26.747 9.552-28.657 24.836l-19.104 118.447c-1.91 15.284 7.641 30.568 22.925 32.478 15.283 1.91 30.567-7.642 32.477-22.925l19.105-118.448c1.91-15.284-7.642-30.567-22.925-32.478 0-1.91-1.91-1.91-3.821-1.91z"  horiz-adv-x="1024" />

    
    <glyph glyph-name="console" unicode="&#58970;" d="M1069.71904-128H82.32704A84.864 84.864 0 0 0 0.02304-41.216V809.216A84.864 84.864 0 0 0 82.32704 896h987.392A84.864 84.864 0 0 0 1152.02304 809.216v-850.432A84.864 84.864 0 0 0 1069.71904-128z m0 798.4H82.32704v-711.616h987.392V670.4zM262.93504 588.8l156.736-165.312 0.384 0.384 58.176-61.376-0.384-0.384 0.384-0.384-58.176-61.376-0.384 0.448-156.736-165.12-58.112 61.376 156.736 165.312L204.82304 527.616z m576.384-387.2H534.87104V288.512h304.448v-86.784z"  horiz-adv-x="1152" />

    
    <glyph glyph-name="hao1" unicode="&#62240;" d="M853.95951925 420.4933895h-310.08967642v300.83326917c0 13.88461268-13.88461268 32.39742862-32.39742936 32.39742862-18.51281666 0-32.39742862-18.51281666-32.39742861-37.02563333v-300.83326844H178.2417157c-18.51281666 4.62820399-37.02563333-13.88461268-37.02563262-32.39742934s18.51281666-32.39742862 32.39742863-32.39742861h300.83326916v-300.83326845c4.62820399-18.51281666 18.51281666-37.02563333 37.02563261-37.02563334s32.39742862 18.51281666 32.39742935 32.39742862v305.46147317h305.46147243c18.51281666 0 32.39742862 18.51281666 32.39742934 32.39742861s-9.25640796 37.02563333-27.76922535 37.02563333z"  horiz-adv-x="1027" />

    
    <glyph glyph-name="shenglve1" unicode="&#58646;" d="M221 304c-44.183 0-80 35.817-80 80s35.817 80 80 80 80-35.817 80-80-35.817-80-80-80z m291 0c-44.183 0-80 35.817-80 80s35.817 80 80 80 80-35.817 80-80-35.817-80-80-80z m291 0c-44.183 0-80 35.817-80 80s35.817 80 80 80 80-35.817 80-80-35.817-80-80-80z"  horiz-adv-x="1024" />

    


  </font>
</defs>
</svg>
